# xmcd
#
# Track frame offsets:
#	150
#	19661
#	36132
#	50611
#	65280
#	80472
#	96879
#	112140
#	129686
#	146895
#	162036
#	178332
#	179046
#	179742
#	180792
#	181606
#	182338
#	183069
#
# Disc length: 2447 seconds
#
# Revision: 1
# Processed by: cddbd v1.5.2PL0 Copyright (c) Steve Scherf et al.
# Submitted via: audiograbber 1.83.01
#
DISCID=f5098d12
DTITLE=Various Artist - CDX Volume 593 (April 14, 2014)
DYEAR=2014
DGENRE=Country
TTITLE0=Dierks Bentley - Drunk On A Plane 
TTITLE1=Love And Theft - Night That You'll Never Forget
TTITLE2=Leah Turner - Pull Me Back [Radio Edit]
TTITLE3=Josh Thompson - Wanted Me Gone
TTITLE4=Bucky Covington - Buzzin'
TTITLE5=Heartland - I Loved Her First 
TTITLE6=Dakota Bradley - Won't Be Young Forever
TTITLE7=Chris Weaver Band - American Dreamer
TTITLE8=Kari and Billy - Are You Ready For The Weekend
TTITLE9=Pat Waters And The Chainlink Band - Hey Paula
TTITLE10=David Grey and Lisa Albritton - We're Out Of Here
TTITLE11=Sherry Lynn - Liner - Home Town Country
TTITLE12=Sherry Lynn - Liner - Kickin' Country
TTITLE13=Sherry Lynn - Liner - New Single
TTITLE14=Sherry Lynn - Liner - Super Country Hits Of All Time
TTITLE15=Sherry Lynn - Liner - The Best In Country
TTITLE16=Sherry Lynn - Liner - Today's Best Country
TTITLE17=Sherry Lynn - Liner - Today's Hot Country Music
EXTD=
EXTT0=
EXTT1=
EXTT2=
EXTT3=
EXTT4=
EXTT5=
EXTT6=
EXTT7=
EXTT8=
EXTT9=
EXTT10=
EXTT11=
EXTT12=
EXTT13=
EXTT14=
EXTT15=
EXTT16=
EXTT17=
PLAYORDER=
